<?xml version="1.0" encoding="utf-8"?>
<!-- Generator: Adobe Illustrator 25.2.0, SVG Export Plug-In . SVG Version: 6.00 Build 0)  -->
<svg version="1.1" id="Layer_1" xmlns="http://www.w3.org/2000/svg" xmlns:xlink="http://www.w3.org/1999/xlink" x="0px" y="0px"
	 viewBox="0 0 70 70" style="enable-background:new 0 0 70 70;" xml:space="preserve">
<style type="text/css">
	.st0{display:none;}
	.st1{display:inline;fill:#FFFFFF;}
	.st2{display:none;fill:#FFFFFF;}
	.st3{fill:#FFFFFF;}
</style>
<g class="st0">
	<path class="st1" d="M37.33,58.42c-8.47-0.2-14.31-0.25-20.13-0.52c-2.85-0.13-5.7-0.51-8.5-1.06c-3.91-0.77-5.95-3.6-6.59-7.25
		c-1.12-6.35-1.31-12.78-0.9-19.22c0.21-3.25,0.33-6.52,0.85-9.72c0.83-5.08,3.44-7.46,8.57-8.09c2.97-0.37,5.97-0.67,8.96-0.74
		c7.13-0.17,14.27-0.3,21.41-0.22c5.47,0.06,10.94,0.37,16.39,0.74c1.98,0.14,4.03,0.52,5.86,1.27c2.86,1.18,4.09,3.8,4.57,6.67
		c1.39,8.29,1.49,16.62,0.61,24.97c-0.14,1.33-0.23,2.67-0.51,3.98c-1.12,5.32-3.83,7.82-9.3,8.16
		C50.66,57.89,42.69,58.17,37.33,58.42z M28.58,24.56c0,6.98,0,13.7,0,20.71c5.67-3.48,11.15-6.84,16.87-10.35
		C39.72,31.41,34.25,28.05,28.58,24.56z"/>
</g>
<path class="st2" d="M40.9,41.24c0,1.21,0,2.22,0,3.23c0,7.42-0.04,14.85,0.03,22.27c0.02,1.62-0.52,2.12-2.08,2.09
	c-3.01-0.07-6.01-0.02-9.02,0.03c-1.32,0.02-1.95-0.36-1.96-1.85c-0.06-7.8-0.27-15.6-0.3-23.41c-0.01-1.8-0.46-2.51-2.37-2.41
	c-2.86,0.15-5.74,0.04-8.84,0.04c0-4.07-0.05-8.01,0.09-11.94c0.01-0.37,1.22-0.96,1.89-1c2.23-0.13,4.48-0.03,6.72-0.06
	c2.52-0.03,2.47-0.04,2.54-2.5c0.1-3.96-0.1-7.97,0.5-11.86c1.11-7.3,5.92-11.69,13.65-12.53c3.88-0.42,7.85-0.07,11.88-0.07
	c0,3.73,0.04,7.3-0.06,10.87c-0.01,0.38-0.85,1.01-1.35,1.06c-2.29,0.22-4.59,0.24-6.89,0.38c-2.8,0.17-4.29,1.72-4.33,4.52
	c-0.04,2.75,0.05,5.51-0.08,8.25c-0.07,1.58,0.56,1.95,2.01,1.91c3.38-0.08,6.76-0.03,10.49-0.03c-0.33,2.63-0.62,5.12-0.96,7.61
	c-0.17,1.26-0.54,2.51-0.59,3.77c-0.06,1.44-0.82,1.64-2.01,1.62C46.94,41.21,44.01,41.24,40.9,41.24z"/>
<g>
	<path class="st3" d="M68.83,35.24c0,5.13,0.06,10.25-0.01,15.38c-0.16,10.11-8.1,18.07-18.24,18.17
		c-10.25,0.1-20.51,0.09-30.76,0.01c-9.64-0.07-17.09-6.73-18.28-16.32c-0.34-2.75-0.34-5.55-0.35-8.32
		C1.15,36.25,1.1,28.33,1.22,20.42C1.31,14.34,3.35,9.04,8.29,5.18c3.51-2.74,7.61-3.87,12.01-3.9c10-0.06,20-0.24,29.99-0.04
		c10.77,0.22,18.4,8.21,18.53,19C68.88,25.24,68.83,30.24,68.83,35.24z M7.6,34.86c-0.01,0-0.01,0-0.02,0
		c0,5.13-0.18,10.26,0.04,15.38c0.35,7.93,5.04,12.08,12.55,12.35c9.86,0.35,19.75,0.33,29.62,0c6.68-0.23,10.7-3.05,12.61-9.45
		c0.34-1.14,0.6-2.35,0.59-3.53c-0.04-10.18,0.08-20.38-0.32-30.55C62.4,12.37,57.15,7.69,50.41,7.61C40.1,7.5,29.77,7.35,19.47,7.7
		c-7.01,0.23-11.32,4.45-11.8,11.6C7.32,24.46,7.6,29.67,7.6,34.86z"/>
	<path class="st3" d="M52.5,35.12c-0.04,9.56-7.94,17.35-17.59,17.33c-9.49-0.02-17.44-8.05-17.41-17.59
		c0.02-9.57,8.06-17.34,17.77-17.43C44.33,17.36,52.95,25.77,52.5,35.12z M23.9,34.77c-0.05,6.19,5.09,11.43,11.21,11.43
		c5.85,0,11.19-5.28,11.25-11.12c0.05-5.89-5.25-11.35-11.14-11.47C29.32,23.49,23.95,28.79,23.9,34.77z"/>
	<path class="st3" d="M53.19,20.95c-2.32-0.01-3.86-1.62-3.83-3.97c0.03-2.14,1.71-3.86,3.82-3.91c2.08-0.05,4.05,1.9,4.03,3.98
		C57.18,19.27,55.44,20.96,53.19,20.95z"/>
</g>
</svg>
