<?xml version="1.0" encoding="utf-8"?>
<!-- Generator: Adobe Illustrator 25.2.0, SVG Export Plug-In . SVG Version: 6.00 Build 0)  -->
<svg version="1.1" id="Layer_1" xmlns="http://www.w3.org/2000/svg" xmlns:xlink="http://www.w3.org/1999/xlink" x="0px" y="0px"
	 viewBox="0 0 55.47 55.47" style="enable-background:new 0 0 55.47 55.47;" xml:space="preserve">
<style type="text/css">
	.st0{fill:#E5E5E5;}
</style>
<g>
	<g>
		<g>
			<g>
				<path class="st0" d="M30.26,0.52h-4.79c-2.17,0-3.93,1.76-3.93,3.93v4.79c0,2.17,1.76,3.93,3.93,3.93h4.79
					c2.17,0,3.93-1.76,3.93-3.93V4.45C34.19,2.28,32.43,0.52,30.26,0.52z M32.62,4.7v4.28c0,1.45-1.18,2.63-2.63,2.63h-4.28
					c-1.45,0-2.63-1.18-2.63-2.63V4.71c0-1.45,1.18-2.63,2.63-2.63H30C31.45,2.08,32.62,3.26,32.62,4.7z"/>
			</g>
		</g>
		<g>
			<g>
				<path class="st0" d="M30.26,14.14h-4.79c-2.17,0-3.93,1.76-3.93,3.93v4.79c0,2.17,1.76,3.93,3.93,3.93h4.79
					c2.17,0,3.93-1.76,3.93-3.93v-4.79C34.19,15.9,32.43,14.14,30.26,14.14z M32.62,18.33v4.28c0,1.45-1.18,2.63-2.63,2.63h-4.28
					c-1.45,0-2.63-1.18-2.63-2.63v-4.28c0-1.45,1.18-2.63,2.63-2.63H30C31.45,15.7,32.62,16.88,32.62,18.33z"/>
			</g>
		</g>
		<g>
			<g>
				<path class="st0" d="M43.93,14.14h-4.79c-2.17,0-3.93,1.76-3.93,3.93v4.79c0,2.17,1.76,3.93,3.93,3.93h4.79
					c2.17,0,3.93-1.76,3.93-3.93v-4.79C47.86,15.9,46.1,14.14,43.93,14.14z M46.32,18.31v4.3c0,1.46-1.18,2.64-2.64,2.64h-4.3
					c-1.46,0-2.64-1.18-2.64-2.64V18.3c0-1.46,1.18-2.64,2.64-2.64h4.3C45.14,15.68,46.32,16.86,46.32,18.31z"/>
			</g>
		</g>
	</g>
	<g>
		<g>
			<path class="st0" d="M30.26,28.68h-4.79c-2.17,0-3.93,1.76-3.93,3.93v4.79c0,2.17,1.76,3.93,3.93,3.93h4.79
				c2.17,0,3.93-1.76,3.93-3.93v-4.79C34.19,30.44,32.43,28.68,30.26,28.68z M32.62,32.86v4.28c0,1.45-1.18,2.63-2.63,2.63h-4.28
				c-1.45,0-2.63-1.18-2.63-2.63v-4.28c0-1.45,1.18-2.63,2.63-2.63H30C31.45,30.24,32.62,31.41,32.62,32.86z"/>
		</g>
	</g>
	<g>
		<g>
			<path class="st0" d="M30.26,42.3h-4.79c-2.17,0-3.93,1.76-3.93,3.93v1.08c0,4.22,3.42,7.65,7.65,7.65h1.08
				c2.17,0,3.93-1.76,3.93-3.93v-4.79C34.19,44.06,32.43,42.3,30.26,42.3z M32.62,46.43v4.33c0,1.45-1.18,2.63-2.63,2.63h-0.57
				c-3.5,0-6.34-2.84-6.34-6.34v-0.57c0-1.45,1.18-2.63,2.63-2.63h4.33C31.47,43.86,32.62,45.01,32.62,46.43z"/>
		</g>
	</g>
	<g>
		<g>
			<path class="st0" d="M43.93,42.3h-4.79c-2.17,0-3.93,1.76-3.93,3.93v4.79c0,2.17,1.76,3.93,3.93,3.93h4.79
				c2.17,0,3.93-1.76,3.93-3.93v-4.79C47.86,44.06,46.1,42.3,43.93,42.3z M46.32,46.47v4.3c0,1.46-1.18,2.64-2.64,2.64h-4.3
				c-1.46,0-2.64-1.18-2.64-2.64v-4.31c0-1.46,1.18-2.64,2.64-2.64h4.3C45.14,43.83,46.32,45.01,46.32,46.47z"/>
		</g>
	</g>
	<g>
		<path class="st0" d="M16.33,14.13h-4.79c-2.17,0-3.93,1.76-3.93,3.93v4.79c0,2.17,1.76,3.93,3.93,3.93h4.79
			c2.17,0,3.93-1.76,3.93-3.93v-4.79C20.27,15.89,18.51,14.13,16.33,14.13z M18.73,18.3v4.31c0,1.46-1.18,2.64-2.64,2.64h-4.3
			c-1.46,0-2.64-1.18-2.64-2.64v-4.3c0-1.46,1.18-2.64,2.64-2.64h4.3C17.55,15.66,18.73,16.85,18.73,18.3z"/>
	</g>
</g>
</svg>
