<?xml version="1.0" encoding="utf-8"?>
<!-- Generator: Adobe Illustrator 25.2.0, SVG Export Plug-In . SVG Version: 6.00 Build 0)  -->
<svg version="1.1" id="Layer_1" xmlns="http://www.w3.org/2000/svg" xmlns:xlink="http://www.w3.org/1999/xlink" x="0px" y="0px"
	 viewBox="0 0 89.06 89.06" style="enable-background:new 0 0 89.06 89.06;" xml:space="preserve">
<style type="text/css">
	.st0{fill:url(#SVGID_1_);}
	.st1{fill:url(#SVGID_2_);}
	.st2{fill:url(#SVGID_3_);}
	.st3{fill:url(#SVGID_4_);}
	.st4{fill:url(#SVGID_5_);}
</style>
<g>
	<g>
		<g>
			<linearGradient id="SVGID_1_" gradientUnits="userSpaceOnUse" x1="1.7719" y1="55.9374" x2="41.818" y2="18.7416">
				<stop  offset="0" style="stop-color:#A100FF"/>
				<stop  offset="0.5168" style="stop-color:#0074FF"/>
				<stop  offset="1" style="stop-color:#00FF8B"/>
			</linearGradient>
			<path class="st0" d="M34.98,16.27H24.67c-4.66,0-8.46,3.79-8.46,8.46v10.31c0,4.66,3.79,8.46,8.46,8.46h10.31
				c4.66,0,8.46-3.79,8.46-8.46V24.73C43.44,20.06,39.64,16.27,34.98,16.27z M40.08,25.28v9.21c0,3.12-2.53,5.65-5.64,5.65h-9.21
				c-3.11,0-5.65-2.53-5.65-5.65v-9.21c0-3.11,2.53-5.65,5.65-5.65h9.21C37.54,19.63,40.08,22.16,40.08,25.28z"/>
		</g>
		<g>
			<linearGradient id="SVGID_2_" gradientUnits="userSpaceOnUse" x1="18.3192" y1="71.9639" x2="51.6672" y2="34.9105">
				<stop  offset="0" style="stop-color:#A100FF"/>
				<stop  offset="0.5168" style="stop-color:#0074FF"/>
				<stop  offset="1" style="stop-color:#00FF8B"/>
			</linearGradient>
			<path class="st1" d="M34.98,45.57H24.67c-4.66,0-8.46,3.79-8.46,8.46v10.31c0,4.66,3.79,8.46,8.46,8.46h10.31
				c4.66,0,8.46-3.79,8.46-8.46V54.02C43.44,49.36,39.64,45.57,34.98,45.57z M40.08,54.58v9.21c0,3.11-2.53,5.65-5.64,5.65h-9.21
				c-3.11,0-5.65-2.53-5.65-5.65v-9.21c0-3.12,2.53-5.65,5.65-5.65h9.21C37.54,48.93,40.08,51.46,40.08,54.58z"/>
		</g>
		<g>
			<linearGradient id="SVGID_3_" gradientUnits="userSpaceOnUse" x1="30.0031" y1="86.332" x2="70.0492" y2="49.1361">
				<stop  offset="0" style="stop-color:#A100FF"/>
				<stop  offset="0.5168" style="stop-color:#0074FF"/>
				<stop  offset="1" style="stop-color:#00FF8B"/>
			</linearGradient>
			<path class="st2" d="M64.39,45.57H54.08c-4.66,0-8.46,3.79-8.46,8.46v10.31c0,4.66,3.79,8.46,8.46,8.46h10.31
				c4.66,0,8.46-3.79,8.46-8.46V54.02C72.85,49.36,69.05,45.57,64.39,45.57z M69.54,54.55v9.26c0,3.13-2.55,5.68-5.68,5.68h-9.26
				c-3.13,0-5.68-2.55-5.68-5.68v-9.26c0-3.13,2.55-5.68,5.68-5.68h9.26C67,48.87,69.54,51.42,69.54,54.55z"/>
		</g>
	</g>
	<g>
		<linearGradient id="SVGID_4_" gradientUnits="userSpaceOnUse" x1="29.1925" y1="60.7235" x2="55.9849" y2="33.2186">
			<stop  offset="0" style="stop-color:#A100FF"/>
			<stop  offset="0.5168" style="stop-color:#0074FF"/>
			<stop  offset="1" style="stop-color:#00FF8B"/>
		</linearGradient>
		<path class="st3" d="M64.39,16.27H54.08c-4.66,0-8.46,3.79-8.46,8.46v10.31c0,4.66,3.79,8.46,8.46,8.46h10.31
			c4.66,0,8.46-3.79,8.46-8.46V24.73C72.85,20.06,69.05,16.27,64.39,16.27z M69.54,25.25v9.26c0,3.13-2.55,5.68-5.68,5.68h-9.26
			c-3.13,0-5.68-2.55-5.68-5.68v-9.26c0-3.13,2.55-5.68,5.68-5.68h9.26C67,19.57,69.54,22.12,69.54,25.25z"/>
	</g>
	<linearGradient id="SVGID_5_" gradientUnits="userSpaceOnUse" x1="6.0875" y1="81.7398" x2="82.9733" y2="7.321">
		<stop  offset="0" style="stop-color:#A100FF"/>
		<stop  offset="0.5168" style="stop-color:#0074FF"/>
		<stop  offset="1" style="stop-color:#00FF8B"/>
	</linearGradient>
	<path class="st4" d="M67.69,5.62c8.68,0,15.75,7.07,15.75,15.75v46.32c0,8.68-7.07,15.75-15.75,15.75H21.37
		c-8.68,0-15.75-7.07-15.75-15.75V21.37c0-8.68,7.07-15.75,15.75-15.75H67.69 M67.69,0.62H21.37C9.91,0.62,0.62,9.91,0.62,21.37
		v46.32c0,11.46,9.29,20.75,20.75,20.75h46.32c11.46,0,20.75-9.29,20.75-20.75V21.37C88.44,9.91,79.15,0.62,67.69,0.62L67.69,0.62z"
		/>
</g>
</svg>
